<?xml version="1.0" encoding="UTF-8" standalone="no"?>
<svg
   version="1.0"
   width="180.000000pt"
   height="180.000000pt"
   viewBox="0 0 180.000000 180.000000"
   preserveAspectRatio="xMidYMid meet"
   id="svg6"
   sodipodi:docname="Logo_PMC.svg"
   inkscape:version="1.3.2 (091e20e, 2023-11-25)"
   xmlns:inkscape="http://www.inkscape.org/namespaces/inkscape"
   xmlns:sodipodi="http://sodipodi.sourceforge.net/DTD/sodipodi-0.dtd"
   xmlns="http://www.w3.org/2000/svg"
   xmlns:svg="http://www.w3.org/2000/svg">
  <defs
     id="defs6" />
  <sodipodi:namedview
     id="namedview6"
     pagecolor="#ffffff"
     bordercolor="#666666"
     borderopacity="1.0"
     inkscape:showpageshadow="2"
     inkscape:pageopacity="0.0"
     inkscape:pagecheckerboard="0"
     inkscape:deskcolor="#d1d1d1"
     inkscape:document-units="pt"
     inkscape:zoom="1.7715145"
     inkscape:cx="73.665783"
     inkscape:cy="138.29975"
     inkscape:window-width="1216"
     inkscape:window-height="749"
     inkscape:window-x="0"
     inkscape:window-y="25"
     inkscape:window-maximized="0"
     inkscape:current-layer="svg6" />
  <path
     d="M 46,39.8 0.5,58.5 45.3,58.8 c 24.6,0.1 64.8,0.1 89.3,0 L 179.1,58.5 135.8,39.7 C 112,29.4 92.3,21 92,21.1 c -0.3,0 -21,8.5 -46,18.7 z"
     id="path1"
     style="fill:#000000;stroke:none;stroke-width:0.1" />
  <path
     d="m 0,69 v 4 h 90 90 V 69 65 H 90 0 Z"
     id="path2"
     style="fill:#000000;stroke:none;stroke-width:0.1" />
  <path
     d="m 0,156 v 4 h 90 90 v -4 -4 H 90 0 Z"
     id="path6"
     style="fill:#000000;stroke:none;stroke-width:0.1" />
  <path
     d="m 36.974297,87.063637 h -17.76 v 51.874003 h 11.322 v -18.426 h 4.292 c 15.17,0 20.276,-8.362 20.276,-18.056 0,-11.470003 -7.622,-15.392003 -18.13,-15.392003 z m -1.85,9.546 c 5.772,0 8.288,2.294 8.288,7.400003 0,3.996 -1.628,7.252 -9.176,7.252 h -3.7 V 96.609637 Z m 55.796069,18.426003 -9.842,-27.972003 h -17.39 v 51.874003 h 10.36 v -38.406 h 0.444 l 11.396,32.19 h 9.324 c 3.848,-10.73 7.696004,-21.46 11.544004,-32.19 h 0.296 v 38.406 h 10.804 V 87.063637 h -16.946 l -9.694004,27.972003 z m 36.482054,-1.48 c 0,15.466 6.216,26.122 22.126,26.122 8.954,0 14.208,-3.404 16.428,-6.068 l -6.216,-7.992 c -1.554,1.85 -4.44,4.366 -9.25,4.366 -7.77,0 -11.47,-6.438 -11.47,-17.168 0,-11.618 3.552,-16.872003 10.508,-16.872003 5.476,0 7.918,2.664 9.62,4.736003 l 7.4,-8.214003 c -1.406,-1.554 -5.994,-6.068 -16.206,-6.068 -15.17,0 -22.94,10.804 -22.94,27.158003 z"
     id="text6"
     style="font-weight:bold;font-size:74px;line-height:1.25;font-family:'Kohinoor Telugu';-inkscape-font-specification:'Kohinoor Telugu, Bold';stroke-width:0.75"
     aria-label="PMC" />
</svg>
